<svg xmlns="http://www.w3.org/2000/svg" data-name="Layer 1" viewBox="0 0 512 512"><path fill="#37b678" d="M100.77819,110.8518a66.83851,66.83851,0,0,0,50.96312,17.16674,60.95991,60.95991,0,0,0-19.85774-51.07747A66.83851,66.83851,0,0,0,80.92045,59.77433,60.95992,60.95992,0,0,0,100.77819,110.8518Z"/><path fill="#00a653" d="M154.43115,132.48045a7.46755,7.46755,0,0,1-4.5542-1.54541L108.06738,98.92381a7.50017,7.50017,0,0,1,9.11914-11.91015l41.80957,32.01123a7.50044,7.50044,0,0,1-4.56494,13.45556Z"/><path fill="#00a653" d="M160.5,169.25487a7.5027,7.5027,0,0,1-7.06787-4.99317,107.96066,107.96066,0,0,1-6.25537-40.395c1.30371-34.0664,18.71435-58.63574,28.977-70.24951A7.5,7.5,0,1,1,187.394,63.54979c-8.939,10.11572-24.103,31.47754-25.228,60.89013a93.02168,93.02168,0,0,0,5.40185,34.8042A7.50513,7.50513,0,0,1,160.5,169.25487Z"/><path fill="#faa827" d="M313.5,307.237c0,62.04-27.66992,115.5-67.5,139.77-1.64014,1-3.31006,1.95-4.99,2.85a91.0337,91.0337,0,0,1-43.15991,11.06,88.29815,88.29815,0,0,1-22.49024-2.91A93.52377,93.52377,0,0,1,160.5,452.727q-3.46509,1.575-7.03,2.85a89.13355,89.13355,0,0,1-30.32007,5.34C59.28,460.917,7.5,392.117,7.5,307.237c0-84.87,51.78-153.68,115.6499-153.68a89.08684,89.08684,0,0,1,30.48,5.4v.01q3.4801,1.245,6.87012,2.79a93.30423,93.30423,0,0,1,14.84009-5.28,88.074,88.074,0,0,1,22.51-2.92A91.03359,91.03359,0,0,1,241.01,164.617c1.67993.9,3.34985,1.85,4.99,2.85C285.83008,191.74693,313.5,245.19694,313.5,307.237Z"/><path fill="#f7991d" d="M175.34009 156.477a7.53671 7.53671 0 0 1-2.18018 3.35c-18.09985 16.03-39.74 60.84-44.62988 108.07a7.48932 7.48932 0 0 1-7.45 6.73 6.90293 6.90293 0 0 1-.78-.04 7.50047 7.50047 0 0 1-6.69019-8.23c4.61011-44.53 22.53028-85.16 40.02-107.39q3.4801 1.245 6.87012 2.79A93.30423 93.30423 0 0 1 175.34009 156.477zM175.35986 458.00694A93.52377 93.52377 0 0 1 160.5 452.727q-3.46509 1.575-7.03 2.85c-15.28-19.17-31.26-45.33-36.79-66.21a7.49993 7.49993 0 1 1 14.5-3.84C137.58008 409.667 159.90991 441.707 175.35986 458.00694zM313.5 307.237c0 62.04-27.66992 115.5-67.5 139.77-1.64014 1-3.31006 1.95-4.99 2.85-42.5-22.71-72.51-78.01-72.51-142.62s30.01-119.91 72.51-142.62c1.67993.9 3.34985 1.85 4.99 2.85C285.83008 191.74693 313.5 245.19694 313.5 307.237z"/><path fill="#fdd402" d="M388.84646,153.55969a90.02027,90.02027,0,0,0-37.34646,8.193,90.02027,90.02027,0,0,0-37.34646-8.193c-63.87363,0-115.65354,68.80425-115.65354,153.67864S250.27991,460.917,314.15354,460.917A90.02042,90.02042,0,0,0,351.5,452.724a90.02042,90.02042,0,0,0,37.34646,8.193C452.72009,460.917,504.5,392.1126,504.5,307.23833S452.72009,153.55969,388.84646,153.55969Z"/><ellipse cx="351.5" cy="307.238" fill="#8b6847" rx="53" ry="80.679"/><path fill="#74563a" d="M328.5,307.23833c0-36.62415,16.03662-67.52912,38-77.38025a36.44909,36.44909,0,0,0-15-3.2984c-29.271,0-53,36.121-53,80.67865s23.729,80.67865,53,80.67865a36.44894,36.44894,0,0,0,15-3.29841C344.53662,374.76744,328.5,343.86241,328.5,307.23833Z"/></svg>